<svg width="924" height="1268" viewBox="0 0 924 1268" fill="none" xmlns="http://www.w3.org/2000/svg">
<path d="M294 253.6H630C635.516 253.601 640.978 252.509 646.074 250.386C651.17 248.262 655.801 245.149 659.701 241.224C663.602 237.298 666.695 232.638 668.806 227.51C670.916 222.381 672.001 216.884 672 211.333V42.2667C672.001 36.7157 670.916 31.2189 668.806 26.0902C666.695 20.9615 663.602 16.3015 659.701 12.3764C655.801 8.45129 651.17 5.33801 646.074 3.21442C640.978 1.09083 635.516 -0.00144238 630 1.42949e-06H294C288.484 -0.00144238 283.022 1.09083 277.925 3.21442C272.829 5.33801 268.198 8.45129 264.298 12.3764C260.398 16.3015 257.304 20.9615 255.194 26.0902C253.084 31.2189 251.998 36.7157 252 42.2667V211.333C251.998 216.884 253.084 222.381 255.194 227.51C257.304 232.638 260.398 237.298 264.298 241.224C268.198 245.149 272.829 248.262 277.925 250.386C283.022 252.509 288.484 253.601 294 253.6ZM336 84.5333H588V169.067H336V84.5333Z" fill="#5D7BBA"/>
<path d="M798 84.5336H735C729.43 84.5336 724.089 86.7602 720.151 90.7234C716.212 94.6867 714 100.062 714 105.667V211.334C714 233.753 705.15 255.255 689.397 271.108C673.644 286.961 652.278 295.867 630 295.867H294C271.722 295.867 250.356 286.961 234.603 271.108C218.85 255.255 210 233.753 210 211.334V105.667C210 100.062 207.788 94.6867 203.849 90.7234C199.911 86.7602 194.57 84.5336 189 84.5336H126C92.5827 84.5336 60.5341 97.8929 36.9045 121.672C13.275 145.452 0 177.704 0 211.334L0 1141.2C0 1174.83 13.275 1207.08 36.9045 1230.86C60.5341 1254.64 92.5827 1268 126 1268H798C831.417 1268 863.466 1254.64 887.095 1230.86C910.725 1207.08 924 1174.83 924 1141.2V211.334C924 177.704 910.725 145.452 887.095 121.672C863.466 97.8929 831.417 84.5336 798 84.5336ZM462 1003.83C405.929 1003.83 351.117 987.101 304.496 955.752C257.875 924.403 221.538 879.845 200.08 827.713C178.623 775.581 173.008 718.217 183.947 662.874C194.886 607.532 221.887 556.696 261.535 516.796C301.183 476.896 351.698 449.724 406.692 438.716C461.686 427.707 518.688 433.357 570.491 454.951C622.294 476.544 666.57 513.112 697.722 560.029C728.873 606.947 745.5 662.107 745.5 718.534C745.414 794.174 715.518 866.691 662.37 920.176C609.222 973.662 537.163 1003.75 462 1003.83Z" fill="#5D7BBA"/>
<path d="M462 496.633C418.39 496.633 375.758 509.648 339.497 534.03C303.236 558.413 274.974 593.069 258.285 633.616C241.596 674.163 237.229 718.78 245.737 761.824C254.245 804.868 275.246 844.407 306.083 875.44C336.921 906.474 376.21 927.608 418.983 936.17C461.756 944.732 506.091 940.337 546.382 923.542C586.673 906.747 621.111 878.306 645.339 841.815C669.568 805.323 682.5 762.421 682.5 718.533C682.433 659.703 659.18 603.301 617.843 561.701C576.506 520.102 520.46 496.701 462 496.633ZM550.984 685.471L476.13 788.908C473.45 792.609 470.006 795.684 466.034 797.921C462.063 800.158 457.657 801.504 453.12 801.868C452.3 801.91 451.48 801.953 450.66 801.953C446.522 801.957 442.425 801.139 438.603 799.545C434.781 797.951 431.31 795.613 428.388 792.666L369.18 733.063C363.274 727.118 359.955 719.056 359.955 710.649C359.956 702.242 363.274 694.18 369.181 688.236C375.088 682.292 383.1 678.952 391.453 678.952C399.807 678.953 407.818 682.292 413.725 688.237L446.886 721.627L500.042 648.159C504.971 641.392 512.364 636.867 520.602 635.575C528.84 634.283 537.25 636.33 543.991 641.268C550.732 646.205 555.253 653.631 556.564 661.916C557.874 670.202 555.868 678.673 550.984 685.473V685.471Z" fill="#5D7BBA"/>
</svg>
