<svg width="914" height="1268" viewBox="0 0 914 1268" fill="none" xmlns="http://www.w3.org/2000/svg">
<path d="M290.818 253.6H623.182C628.639 253.603 634.043 252.512 639.084 250.389C644.126 248.266 648.708 245.153 652.566 241.227C656.424 237.302 659.485 232.641 661.571 227.512C663.658 222.382 664.731 216.885 664.727 211.333V42.2667C664.731 36.7152 663.658 31.2176 661.571 26.0882C659.485 20.9587 656.424 16.298 652.566 12.3726C648.708 8.44711 644.126 5.33389 639.084 3.21091C634.043 1.08794 628.639 -0.00316015 623.182 6.87469e-06H290.818C285.362 -0.00316015 279.958 1.08794 274.916 3.21091C269.874 5.33389 265.293 8.44711 261.434 12.3726C257.576 16.298 254.516 20.9587 252.429 26.0882C250.342 31.2176 249.27 36.7152 249.273 42.2667V211.333C249.27 216.885 250.342 222.382 252.429 227.512C254.516 232.641 257.576 237.302 261.434 241.227C265.293 245.153 269.874 248.266 274.916 250.389C279.958 252.512 285.362 253.603 290.818 253.6ZM332.364 84.5333H581.637V169.067H332.364V84.5333Z" fill="#5D7BBA"/>
<path d="M789.364 84.5334H727.045C721.536 84.5334 716.253 86.7599 712.357 90.7232C708.461 94.6865 706.273 100.062 706.273 105.667V211.333C706.273 233.753 697.519 255.254 681.936 271.107C666.353 286.961 645.219 295.867 623.182 295.867H290.818C268.781 295.867 247.647 286.961 232.064 271.107C216.481 255.254 207.727 233.753 207.727 211.333V105.667C207.727 100.062 205.539 94.6865 201.643 90.7232C197.747 86.7599 192.464 84.5334 186.955 84.5334H124.636C91.5807 84.5334 59.879 97.8927 36.5051 121.672C13.1313 145.452 0 177.704 0 211.333L0 1141.2C0 1174.83 13.1313 1207.08 36.5051 1230.86C59.879 1254.64 91.5807 1268 124.636 1268H789.364C822.419 1268 854.121 1254.64 877.495 1230.86C900.869 1207.08 914 1174.83 914 1141.2V211.333C914 177.704 900.869 145.452 877.495 121.672C854.121 97.8927 822.419 84.5334 789.364 84.5334ZM457 1003.83C401.536 1003.83 347.317 987.101 301.2 955.752C255.084 924.402 219.14 879.845 197.915 827.713C176.69 775.581 171.136 718.217 181.957 662.874C192.777 607.531 219.486 556.696 258.705 516.796C297.924 476.896 347.892 449.724 402.29 438.715C456.689 427.707 513.074 433.357 564.317 454.951C615.559 476.544 659.356 513.112 690.171 560.029C720.985 606.946 737.432 662.106 737.432 718.533C737.344 794.172 707.77 866.687 655.198 920.172C602.626 973.657 531.348 1003.74 457 1003.83Z" fill="#5D7BBA"/>
<path d="M457 496.634C413.861 496.634 371.691 509.648 335.823 534.031C299.954 558.413 271.998 593.069 255.489 633.616C238.981 674.163 234.661 718.78 243.077 761.824C251.493 804.868 272.267 844.407 302.77 875.441C333.274 906.474 372.138 927.608 414.448 936.17C456.758 944.732 500.613 940.337 540.468 923.542C580.323 906.747 614.388 878.306 638.355 841.815C662.321 805.323 675.113 762.421 675.113 718.534C675.043 659.704 652.041 603.304 611.152 561.705C570.263 520.106 514.826 496.705 457 496.634ZM537.778 755.888C540.671 758.832 542.966 762.326 544.532 766.172C546.098 770.017 546.904 774.139 546.904 778.301C546.904 782.464 546.098 786.586 544.532 790.431C542.966 794.277 540.671 797.771 537.778 800.714C534.885 803.658 531.451 805.992 527.671 807.585C523.891 809.178 519.839 809.998 515.748 809.998C511.656 809.998 507.605 809.178 503.825 807.585C500.045 805.992 496.61 803.658 493.717 800.714L457 763.36L420.282 800.714C414.44 806.659 406.515 809.998 398.252 809.998C389.989 809.998 382.064 806.659 376.221 800.714C370.379 794.77 367.096 786.708 367.096 778.301C367.096 769.895 370.379 761.833 376.221 755.888L412.939 718.534L376.221 681.179C370.379 675.234 367.096 667.172 367.096 658.766C367.096 650.359 370.379 642.297 376.221 636.353C382.064 630.409 389.989 627.069 398.252 627.069C406.515 627.069 414.44 630.409 420.282 636.353L457 673.708L493.717 636.353C496.61 633.41 500.045 631.075 503.825 629.482C507.605 627.889 511.656 627.069 515.748 627.069C519.839 627.069 523.891 627.889 527.671 629.482C531.451 631.075 534.885 633.41 537.778 636.353C540.671 639.296 542.966 642.79 544.532 646.636C546.098 650.482 546.904 654.603 546.904 658.766C546.904 662.928 546.098 667.05 544.532 670.896C542.966 674.741 540.671 678.235 537.778 681.179L501.061 718.534L537.778 755.888Z" fill="#5D7BBA"/>
</svg>
