<svg width="1024" height="1024" viewBox="0 0 1024 1024" fill="none" xmlns="http://www.w3.org/2000/svg">
<path d="M419.409 255.038H609.591C612.713 255.039 615.805 254.453 618.689 253.314C621.574 252.175 624.195 250.505 626.403 248.399C628.61 246.294 630.361 243.794 631.556 241.043C632.75 238.292 633.365 235.343 633.364 232.365V141.673C633.365 138.695 632.75 135.747 631.556 132.996C630.361 130.244 628.61 127.745 626.403 125.639C624.195 123.534 621.574 121.863 618.689 120.724C615.805 119.585 612.713 118.999 609.591 119H419.409C416.287 118.999 413.195 119.585 410.311 120.724C407.426 121.863 404.805 123.534 402.598 125.639C400.39 127.745 398.639 130.244 397.444 132.996C396.25 135.747 395.636 138.695 395.636 141.673V232.365C395.636 235.343 396.25 238.292 397.444 241.043C398.639 243.794 400.39 246.294 402.598 248.399C404.805 250.505 407.426 252.175 410.311 253.314C413.195 254.453 416.287 255.039 419.409 255.038ZM443.182 164.346H585.818V209.692H443.182V164.346Z" fill="#5D7BBA"/>
<path d="M704.682 164.346H669.023C665.87 164.346 662.847 165.74 660.618 168.22C658.389 170.7 657.136 174.064 657.136 177.572V243.702C657.136 257.733 652.127 271.189 643.211 281.111C634.294 291.032 622.201 296.606 609.591 296.606H419.409C406.799 296.606 394.706 291.032 385.789 281.111C376.873 271.189 371.864 257.733 371.864 243.702V177.572C371.864 174.064 370.611 170.7 368.382 168.22C366.153 165.74 363.13 164.346 359.977 164.346H324.318C305.403 164.346 287.263 172.707 273.889 187.589C260.514 202.471 253 222.655 253 243.702V825.644C253 846.691 260.514 866.875 273.889 881.757C287.263 896.639 305.403 905 324.318 905H704.682C723.597 905 741.737 896.639 755.111 881.757C768.486 866.875 776 846.691 776 825.644V243.702C776 222.655 768.486 202.471 755.111 187.589C741.737 172.707 723.597 164.346 704.682 164.346ZM371.864 481.769H466.955C473.257 481.773 479.3 484.562 483.755 489.522C488.211 494.483 490.713 501.208 490.713 508.221C490.713 515.234 488.211 521.96 483.755 526.92C479.3 531.88 473.257 534.669 466.955 534.673H371.864C365.561 534.669 359.518 531.88 355.063 526.92C350.608 521.96 348.105 515.234 348.105 508.221C348.105 501.208 350.608 494.483 355.063 489.522C359.518 484.562 365.561 481.773 371.864 481.769ZM633.364 746.288H371.864C365.559 746.288 359.512 743.502 355.054 738.541C350.596 733.58 348.091 726.852 348.091 719.836C348.091 712.821 350.596 706.093 355.054 701.132C359.512 696.171 365.559 693.385 371.864 693.385H633.364C639.669 693.385 645.715 696.171 650.174 701.132C654.632 706.093 657.136 712.821 657.136 719.836C657.136 726.852 654.632 733.58 650.174 738.541C645.715 743.502 639.669 746.288 633.364 746.288ZM633.364 640.481H371.864C365.561 640.477 359.518 637.688 355.063 632.728C350.608 627.767 348.105 621.042 348.105 614.029C348.105 607.016 350.608 600.29 355.063 595.33C359.518 590.37 365.561 587.581 371.864 587.577H633.364C639.666 587.581 645.709 590.37 650.164 595.33C654.62 600.29 657.122 607.016 657.122 614.029C657.122 621.042 654.62 627.767 650.164 632.728C645.709 637.688 639.666 640.477 633.364 640.481Z" fill="#5D7BBA"/>
</svg>
